<?xml version="1.0" encoding="UTF-8" standalone="no"?>
<!DOCTYPE svg PUBLIC "-//W3C//DTD SVG 1.1//EN" "http://www.w3.org/Graphics/SVG/1.1/DTD/svg11.dtd">
<svg version="1.1" xmlns="http://www.w3.org/2000/svg" xmlns:xlink="http://www.w3.org/1999/xlink" preserveAspectRatio="xMidYMid meet" viewBox="0 0 1121.8 533.8" width="1121.8" height="533.8"><defs><path d="M565.39 120.32C525.69 120.32 493.5 152.51 493.5 192.21C493.5 231.92 525.69 264.1 565.39 264.1C605.1 264.1 637.28 231.92 637.28 192.21C637.28 152.51 605.1 120.32 565.39 120.32Z" id="a2b01bI7Ih"></path><path d="M565.39 130.6C531.37 130.6 503.79 158.19 503.79 192.21C503.79 226.24 531.37 253.82 565.39 253.82C599.42 253.82 627 226.24 627 192.21C627 158.19 599.42 130.6 565.39 130.6Z" id="l313WLEfY"></path><path d="M720.16 54.42C680.46 54.42 648.27 86.61 648.27 126.31C648.27 166.02 680.46 198.2 720.16 198.2C759.87 198.2 792.05 166.02 792.05 126.31C792.05 86.61 759.87 54.42 720.16 54.42Z" id="cOsLNdveC"></path><path d="M720.16 64.7C686.14 64.7 658.55 92.29 658.55 126.31C658.55 160.34 686.14 187.92 720.16 187.92C754.19 187.92 781.77 160.34 781.77 126.31C781.77 92.29 754.19 64.7 720.16 64.7Z" id="cr7cydg5I"></path><path d="M887.91 82.38C848.2 82.38 816.02 114.56 816.02 154.27C816.02 193.97 848.2 226.16 887.91 226.16C927.61 226.16 959.8 193.97 959.8 154.27C959.8 114.56 927.61 82.38 887.91 82.38Z" id="abQ1FrgfU"></path><path d="M887.91 92.66C853.88 92.66 826.3 120.24 826.3 154.27C826.3 188.29 853.88 215.88 887.91 215.88C921.93 215.88 949.52 188.29 949.52 154.27C949.52 120.24 921.93 92.66 887.91 92.66Z" id="e2VFbDxg6C"></path><path d="M1048.67 153.27C1008.96 153.27 976.78 185.46 976.78 225.16C976.78 264.87 1008.96 297.05 1048.67 297.05C1088.37 297.05 1120.56 264.87 1120.56 225.16C1120.56 185.46 1088.37 153.27 1048.67 153.27Z" id="a2SdYz5szd"></path><path d="M1048.67 163.55C1014.64 163.55 987.06 191.14 987.06 225.16C987.06 259.19 1014.64 286.77 1048.67 286.77C1082.69 286.77 1110.27 259.19 1110.27 225.16C1110.27 191.14 1082.69 163.55 1048.67 163.55Z" id="c1uIUPsoMC"></path><path d="M1017.71 335C978.01 335 945.82 367.18 945.82 406.89C945.82 446.59 978.01 478.78 1017.71 478.78C1057.42 478.78 1089.61 446.59 1089.61 406.89C1089.61 367.18 1057.42 335 1017.71 335Z" id="b1JRBAuezc"></path><path d="M1017.71 345.28C983.69 345.28 956.11 372.86 956.11 406.89C956.11 440.91 983.69 468.5 1017.71 468.5C1051.74 468.5 1079.32 440.91 1079.32 406.89C1079.32 372.86 1051.74 345.28 1017.71 345.28Z" id="bZKay50XO"></path><path d="M856.96 264.1C817.25 264.1 785.06 296.29 785.06 336C785.06 375.7 817.25 407.89 856.96 407.89C896.66 407.89 928.85 375.7 928.85 336C928.85 296.29 896.66 264.1 856.96 264.1Z" id="i22YX3xtTG"></path><path d="M856.96 274.39C822.93 274.39 795.35 301.97 795.35 336C795.35 370.02 822.93 397.6 856.96 397.6C890.98 397.6 918.56 370.02 918.56 336C918.56 301.97 890.98 274.39 856.96 274.39Z" id="d2afvIlYYZ"></path><path d="M688.21 236.15C648.5 236.15 616.32 268.33 616.32 308.04C616.32 347.74 648.5 379.93 688.21 379.93C727.91 379.93 760.1 347.74 760.1 308.04C760.1 268.33 727.91 236.15 688.21 236.15Z" id="cIQb5Z2KL"></path><path d="M688.21 246.43C654.18 246.43 626.6 274.01 626.6 308.04C626.6 342.06 654.18 369.65 688.21 369.65C722.23 369.65 749.82 342.06 749.82 308.04C749.82 274.01 722.23 246.43 688.21 246.43Z" id="aQqk30XIF"></path><path d="M532.44 301.05C492.74 301.05 460.55 333.24 460.55 372.94C460.55 412.65 492.74 444.83 532.44 444.83C572.15 444.83 604.33 412.65 604.33 372.94C604.33 333.24 572.15 301.05 532.44 301.05Z" id="g3TXXYUY7z"></path><path d="M532.44 311.33C498.42 311.33 470.83 338.92 470.83 372.94C470.83 406.97 498.42 434.55 532.44 434.55C566.47 434.55 594.05 406.97 594.05 372.94C594.05 338.92 566.47 311.33 532.44 311.33Z" id="c1OhMhLtag"></path><path d="M303.79 251.12C272.35 251.12 246.87 276.6 246.87 308.04C246.87 339.47 272.35 364.95 303.79 364.95C335.22 364.95 360.7 339.47 360.7 308.04C360.7 276.6 335.22 251.12 303.79 251.12Z" id="cf01pO2oi"></path></defs><g><g><g><use xlink:href="#a2b01bI7Ih" opacity="1" fill="#000000" fill-opacity="1"></use><g><use xlink:href="#a2b01bI7Ih" opacity="1" fill-opacity="0" stroke="#000000" stroke-width="1" stroke-opacity="0"></use></g></g><g><use xlink:href="#l313WLEfY" opacity="1" fill="#1a1a1a" fill-opacity="1"></use><g><use xlink:href="#l313WLEfY" opacity="1" fill-opacity="0" stroke="#000000" stroke-width="1" stroke-opacity="0"></use></g></g><g><use xlink:href="#cOsLNdveC" opacity="1" fill="#000000" fill-opacity="1"></use><g><use xlink:href="#cOsLNdveC" opacity="1" fill-opacity="0" stroke="#000000" stroke-width="1" stroke-opacity="0"></use></g></g><g><use xlink:href="#cr7cydg5I" opacity="1" fill="#1a1a1a" fill-opacity="1"></use><g><use xlink:href="#cr7cydg5I" opacity="1" fill-opacity="0" stroke="#000000" stroke-width="1" stroke-opacity="0"></use></g></g><g><use xlink:href="#abQ1FrgfU" opacity="1" fill="#000000" fill-opacity="1"></use><g><use xlink:href="#abQ1FrgfU" opacity="1" fill-opacity="0" stroke="#000000" stroke-width="1" stroke-opacity="0"></use></g></g><g><use xlink:href="#e2VFbDxg6C" opacity="1" fill="#1a1a1a" fill-opacity="1"></use><g><use xlink:href="#e2VFbDxg6C" opacity="1" fill-opacity="0" stroke="#000000" stroke-width="1" stroke-opacity="0"></use></g></g><g><use xlink:href="#a2SdYz5szd" opacity="1" fill="#000000" fill-opacity="1"></use><g><use xlink:href="#a2SdYz5szd" opacity="1" fill-opacity="0" stroke="#000000" stroke-width="1" stroke-opacity="0"></use></g></g><g><use xlink:href="#c1uIUPsoMC" opacity="1" fill="#1a1a1a" fill-opacity="1"></use><g><use xlink:href="#c1uIUPsoMC" opacity="1" fill-opacity="0" stroke="#000000" stroke-width="1" stroke-opacity="0"></use></g></g><g><use xlink:href="#b1JRBAuezc" opacity="1" fill="#000000" fill-opacity="1"></use><g><use xlink:href="#b1JRBAuezc" opacity="1" fill-opacity="0" stroke="#000000" stroke-width="1" stroke-opacity="0"></use></g></g><g><use xlink:href="#bZKay50XO" opacity="1" fill="#1a1a1a" fill-opacity="1"></use><g><use xlink:href="#bZKay50XO" opacity="1" fill-opacity="0" stroke="#000000" stroke-width="1" stroke-opacity="0"></use></g></g><g><use xlink:href="#i22YX3xtTG" opacity="1" fill="#000000" fill-opacity="1"></use><g><use xlink:href="#i22YX3xtTG" opacity="1" fill-opacity="0" stroke="#000000" stroke-width="1" stroke-opacity="0"></use></g></g><g><use xlink:href="#d2afvIlYYZ" opacity="1" fill="#1a1a1a" fill-opacity="1"></use><g><use xlink:href="#d2afvIlYYZ" opacity="1" fill-opacity="0" stroke="#000000" stroke-width="1" stroke-opacity="0"></use></g></g><g><use xlink:href="#cIQb5Z2KL" opacity="1" fill="#000000" fill-opacity="1"></use><g><use xlink:href="#cIQb5Z2KL" opacity="1" fill-opacity="0" stroke="#000000" stroke-width="1" stroke-opacity="0"></use></g></g><g><use xlink:href="#aQqk30XIF" opacity="1" fill="#1a1a1a" fill-opacity="1"></use><g><use xlink:href="#aQqk30XIF" opacity="1" fill-opacity="0" stroke="#000000" stroke-width="1" stroke-opacity="0"></use></g></g><g><use xlink:href="#g3TXXYUY7z" opacity="1" fill="#000000" fill-opacity="1"></use><g><use xlink:href="#g3TXXYUY7z" opacity="1" fill-opacity="0" stroke="#000000" stroke-width="1" stroke-opacity="0"></use></g></g><g><use xlink:href="#c1OhMhLtag" opacity="1" fill="#1a1a1a" fill-opacity="1"></use><g><use xlink:href="#c1OhMhLtag" opacity="1" fill-opacity="0" stroke="#000000" stroke-width="1" stroke-opacity="0"></use></g></g><g><use xlink:href="#cf01pO2oi" opacity="1" fill="#000000" fill-opacity="1"></use><g><use xlink:href="#cf01pO2oi" opacity="1" fill-opacity="0" stroke="#000000" stroke-width="1" stroke-opacity="0"></use></g></g></g></g></svg>